<svg width="746" height="718" viewBox="0 0 746 718" fill="none" xmlns="http://www.w3.org/2000/svg">
<path fill-rule="evenodd" clip-rule="evenodd" d="M126.584 224.689C150.975 181.325 211.728 180.659 255.688 157.359C302.518 132.537 339.664 77.495 392.284 83.8568C445.005 90.231 469.13 151.433 507.792 187.839C549.693 227.296 607.754 251.951 628.005 305.826C650.735 366.296 653.512 437.786 623.182 494.825C592.747 552.061 531.031 586.853 468.841 605.15C412.624 621.689 356.263 596.5 297.97 590.504C232.492 583.77 145.66 620.927 106.662 567.899C66.2051 512.887 132.006 438.383 135.963 370.211C138.851 320.468 102.156 268.118 126.584 224.689Z" fill="url(#paint0_linear_340_1691)"/>
<circle cx="344" cy="382" r="235" fill="url(#paint1_linear_340_1691)"/>
<g filter="url(#filter0_f_340_1691)">
<ellipse cx="344" cy="626" rx="180.5" ry="8" fill="#C4C4C4"/>
</g>
<path d="M220.775 292.68H240.661C244.738 292.68 248.241 293.29 251.171 294.511C254.125 295.731 256.396 297.538 257.982 299.931C259.569 302.323 260.363 305.265 260.363 308.756C260.363 311.613 259.875 314.066 258.898 316.117C257.946 318.144 256.591 319.84 254.833 321.208C253.1 322.55 251.061 323.625 248.717 324.43L245.238 326.261H227.953L227.88 317.692H240.734C242.663 317.692 244.262 317.35 245.531 316.667C246.801 315.983 247.753 315.031 248.388 313.81C249.047 312.589 249.376 311.173 249.376 309.562C249.376 307.853 249.059 306.376 248.424 305.131C247.79 303.886 246.825 302.934 245.531 302.274C244.237 301.615 242.614 301.286 240.661 301.286H231.762V346H220.775V292.68ZM250.585 346L238.427 322.233L250.036 322.16L262.34 345.487V346H250.585ZM289.55 337.064V319.413C289.55 318.144 289.342 317.057 288.927 316.154C288.512 315.226 287.865 314.506 286.986 313.993C286.132 313.48 285.021 313.224 283.654 313.224C282.482 313.224 281.469 313.432 280.614 313.847C279.76 314.237 279.101 314.811 278.637 315.568C278.173 316.3 277.941 317.167 277.941 318.168H267.394C267.394 316.483 267.785 314.884 268.566 313.371C269.347 311.857 270.482 310.526 271.972 309.379C273.461 308.207 275.231 307.292 277.282 306.632C279.357 305.973 281.676 305.644 284.24 305.644C287.316 305.644 290.05 306.156 292.443 307.182C294.835 308.207 296.715 309.745 298.083 311.796C299.474 313.847 300.17 316.41 300.17 319.486V336.442C300.17 338.615 300.304 340.397 300.573 341.789C300.841 343.156 301.232 344.352 301.745 345.377V346H291.088C290.575 344.926 290.185 343.583 289.916 341.972C289.672 340.336 289.55 338.7 289.55 337.064ZM290.941 321.867L291.015 327.836H285.119C283.727 327.836 282.519 327.995 281.493 328.312C280.468 328.629 279.625 329.081 278.966 329.667C278.307 330.229 277.819 330.888 277.501 331.645C277.208 332.401 277.062 333.231 277.062 334.135C277.062 335.038 277.27 335.856 277.685 336.588C278.1 337.296 278.698 337.858 279.479 338.273C280.26 338.664 281.176 338.859 282.226 338.859C283.812 338.859 285.192 338.542 286.364 337.907C287.536 337.272 288.439 336.491 289.074 335.563C289.733 334.635 290.075 333.756 290.099 332.926L292.882 337.394C292.492 338.395 291.955 339.433 291.271 340.507C290.612 341.581 289.77 342.594 288.744 343.546C287.719 344.474 286.486 345.243 285.045 345.854C283.605 346.439 281.896 346.732 279.918 346.732C277.404 346.732 275.121 346.232 273.07 345.231C271.044 344.206 269.433 342.802 268.236 341.02C267.064 339.213 266.479 337.162 266.479 334.867C266.479 332.792 266.869 330.949 267.65 329.337C268.432 327.726 269.579 326.371 271.093 325.272C272.631 324.149 274.547 323.307 276.842 322.746C279.137 322.16 281.798 321.867 284.826 321.867H290.941ZM319.433 306.376V346H308.849V306.376H319.433ZM308.19 296.049C308.19 294.511 308.727 293.241 309.801 292.24C310.875 291.239 312.316 290.739 314.123 290.739C315.905 290.739 317.333 291.239 318.407 292.24C319.506 293.241 320.055 294.511 320.055 296.049C320.055 297.587 319.506 298.856 318.407 299.857C317.333 300.858 315.905 301.359 314.123 301.359C312.316 301.359 310.875 300.858 309.801 299.857C308.727 298.856 308.19 297.587 308.19 296.049ZM349.572 335.05C349.572 334.293 349.352 333.61 348.913 333C348.473 332.389 347.655 331.828 346.459 331.315C345.287 330.778 343.59 330.29 341.369 329.85C339.367 329.411 337.499 328.861 335.766 328.202C334.057 327.519 332.567 326.701 331.298 325.749C330.053 324.796 329.076 323.673 328.368 322.379C327.66 321.061 327.306 319.56 327.306 317.875C327.306 316.215 327.66 314.652 328.368 313.188C329.101 311.723 330.138 310.429 331.481 309.306C332.848 308.158 334.508 307.267 336.461 306.632C338.439 305.973 340.661 305.644 343.126 305.644C346.569 305.644 349.523 306.193 351.989 307.292C354.479 308.39 356.383 309.904 357.702 311.833C359.044 313.737 359.716 315.91 359.716 318.351H349.169C349.169 317.326 348.949 316.41 348.51 315.604C348.095 314.774 347.436 314.127 346.532 313.664C345.653 313.175 344.506 312.931 343.09 312.931C341.918 312.931 340.905 313.139 340.05 313.554C339.196 313.944 338.537 314.481 338.073 315.165C337.633 315.824 337.414 316.557 337.414 317.362C337.414 317.973 337.536 318.522 337.78 319.01C338.048 319.474 338.476 319.901 339.062 320.292C339.647 320.683 340.404 321.049 341.332 321.391C342.284 321.708 343.456 322.001 344.848 322.27C347.704 322.855 350.255 323.625 352.501 324.577C354.748 325.504 356.53 326.774 357.848 328.385C359.167 329.972 359.826 332.06 359.826 334.647C359.826 336.405 359.435 338.017 358.654 339.481C357.873 340.946 356.75 342.228 355.285 343.327C353.82 344.401 352.062 345.243 350.011 345.854C347.985 346.439 345.702 346.732 343.163 346.732C339.477 346.732 336.352 346.073 333.788 344.755C331.249 343.437 329.32 341.764 328.002 339.738C326.708 337.687 326.061 335.587 326.061 333.439H336.059C336.107 334.879 336.474 336.039 337.157 336.918C337.865 337.797 338.756 338.432 339.831 338.822C340.929 339.213 342.113 339.408 343.383 339.408C344.75 339.408 345.885 339.225 346.789 338.859C347.692 338.468 348.375 337.956 348.839 337.321C349.328 336.662 349.572 335.905 349.572 335.05ZM377.807 306.376V346H367.223V306.376H377.807ZM366.564 296.049C366.564 294.511 367.101 293.241 368.175 292.24C369.25 291.239 370.69 290.739 372.497 290.739C374.279 290.739 375.707 291.239 376.781 292.24C377.88 293.241 378.429 294.511 378.429 296.049C378.429 297.587 377.88 298.856 376.781 299.857C375.707 300.858 374.279 301.359 372.497 301.359C370.69 301.359 369.25 300.858 368.175 299.857C367.101 298.856 366.564 297.587 366.564 296.049ZM396.85 314.835V346H386.303V306.376H396.19L396.85 314.835ZM395.312 324.796H392.455C392.455 321.867 392.833 319.23 393.59 316.886C394.347 314.518 395.409 312.504 396.776 310.844C398.144 309.159 399.767 307.877 401.647 306.999C403.551 306.095 405.675 305.644 408.019 305.644C409.875 305.644 411.571 305.912 413.109 306.449C414.647 306.986 415.966 307.841 417.064 309.013C418.188 310.185 419.042 311.735 419.628 313.664C420.238 315.592 420.543 317.948 420.543 320.731V346H409.923V320.695C409.923 318.937 409.679 317.57 409.191 316.593C408.703 315.617 407.982 314.933 407.03 314.542C406.103 314.127 404.955 313.92 403.588 313.92C402.172 313.92 400.939 314.201 399.889 314.762C398.864 315.324 398.009 316.105 397.326 317.106C396.667 318.083 396.166 319.23 395.824 320.548C395.482 321.867 395.312 323.283 395.312 324.796ZM453.649 306.376H463.207V344.682C463.207 348.295 462.401 351.359 460.79 353.874C459.203 356.413 456.981 358.329 454.125 359.623C451.269 360.941 447.948 361.601 444.164 361.601C442.504 361.601 440.746 361.381 438.891 360.941C437.06 360.502 435.302 359.818 433.617 358.891C431.957 357.963 430.565 356.791 429.442 355.375L434.093 349.149C435.314 350.565 436.73 351.664 438.341 352.445C439.953 353.251 441.735 353.654 443.688 353.654C445.592 353.654 447.204 353.3 448.522 352.592C449.84 351.908 450.854 350.895 451.562 349.552C452.27 348.234 452.624 346.635 452.624 344.755V315.531L453.649 306.376ZM426.989 326.664V325.895C426.989 322.868 427.355 320.121 428.087 317.655C428.844 315.165 429.906 313.029 431.273 311.247C432.665 309.464 434.35 308.085 436.327 307.108C438.305 306.132 440.539 305.644 443.029 305.644C445.666 305.644 447.875 306.132 449.657 307.108C451.439 308.085 452.904 309.477 454.052 311.283C455.199 313.065 456.09 315.177 456.725 317.619C457.384 320.036 457.897 322.685 458.263 325.565V327.25C457.897 330.009 457.348 332.572 456.615 334.94C455.883 337.309 454.918 339.384 453.722 341.166C452.526 342.924 451.037 344.291 449.254 345.268C447.497 346.244 445.397 346.732 442.956 346.732C440.514 346.732 438.305 346.232 436.327 345.231C434.374 344.23 432.702 342.826 431.31 341.02C429.918 339.213 428.844 337.089 428.087 334.647C427.355 332.206 426.989 329.545 426.989 326.664ZM437.536 325.895V326.664C437.536 328.3 437.694 329.826 438.012 331.242C438.329 332.658 438.817 333.915 439.477 335.014C440.16 336.088 441.002 336.93 442.003 337.541C443.029 338.126 444.237 338.419 445.629 338.419C447.558 338.419 449.132 338.017 450.353 337.211C451.574 336.381 452.489 335.246 453.1 333.805C453.71 332.365 454.064 330.705 454.162 328.825V324.027C454.113 322.489 453.905 321.11 453.539 319.889C453.173 318.644 452.66 317.582 452.001 316.703C451.342 315.824 450.487 315.141 449.438 314.652C448.388 314.164 447.143 313.92 445.702 313.92C444.311 313.92 443.102 314.237 442.077 314.872C441.076 315.482 440.233 316.325 439.55 317.399C438.891 318.473 438.39 319.743 438.048 321.208C437.707 322.648 437.536 324.21 437.536 325.895ZM301.342 406.131V427.262C300.512 428.263 299.23 429.349 297.497 430.521C295.763 431.668 293.529 432.657 290.795 433.487C288.061 434.317 284.752 434.732 280.871 434.732C277.428 434.732 274.291 434.171 271.459 433.048C268.627 431.9 266.186 430.228 264.135 428.031C262.108 425.833 260.546 423.148 259.447 419.974C258.349 416.776 257.799 413.126 257.799 409.024V405.692C257.799 401.59 258.324 397.94 259.374 394.742C260.448 391.544 261.974 388.846 263.952 386.649C265.929 384.452 268.285 382.779 271.02 381.632C273.754 380.484 276.793 379.911 280.138 379.911C284.777 379.911 288.585 380.667 291.564 382.181C294.542 383.67 296.813 385.746 298.375 388.407C299.962 391.043 300.939 394.071 301.305 397.489H290.648C290.38 395.682 289.867 394.107 289.11 392.765C288.354 391.422 287.267 390.372 285.851 389.615C284.459 388.858 282.653 388.48 280.431 388.48C278.6 388.48 276.964 388.858 275.524 389.615C274.108 390.348 272.912 391.434 271.935 392.875C270.958 394.315 270.214 396.097 269.701 398.221C269.188 400.345 268.932 402.811 268.932 405.619V409.024C268.932 411.808 269.201 414.273 269.738 416.422C270.275 418.546 271.068 420.34 272.118 421.805C273.192 423.246 274.511 424.332 276.073 425.064C277.636 425.797 279.455 426.163 281.53 426.163C283.263 426.163 284.704 426.017 285.851 425.724C287.023 425.431 287.963 425.077 288.671 424.662C289.403 424.222 289.965 423.807 290.355 423.417V413.968H280.321V406.131H301.342ZM307.86 414.591V413.822C307.86 410.917 308.275 408.243 309.105 405.802C309.936 403.336 311.144 401.2 312.731 399.393C314.318 397.586 316.271 396.183 318.59 395.182C320.91 394.156 323.571 393.644 326.574 393.644C329.577 393.644 332.25 394.156 334.594 395.182C336.938 396.183 338.903 397.586 340.49 399.393C342.101 401.2 343.322 403.336 344.152 405.802C344.982 408.243 345.397 410.917 345.397 413.822V414.591C345.397 417.472 344.982 420.145 344.152 422.611C343.322 425.052 342.101 427.188 340.49 429.02C338.903 430.826 336.95 432.23 334.63 433.231C332.311 434.232 329.65 434.732 326.647 434.732C323.644 434.732 320.971 434.232 318.627 433.231C316.308 432.23 314.342 430.826 312.731 429.02C311.144 427.188 309.936 425.052 309.105 422.611C308.275 420.145 307.86 417.472 307.86 414.591ZM318.407 413.822V414.591C318.407 416.251 318.554 417.801 318.847 419.242C319.14 420.682 319.604 421.952 320.238 423.05C320.897 424.125 321.752 424.967 322.802 425.577C323.852 426.188 325.133 426.493 326.647 426.493C328.112 426.493 329.369 426.188 330.419 425.577C331.469 424.967 332.311 424.125 332.946 423.05C333.581 421.952 334.044 420.682 334.337 419.242C334.655 417.801 334.813 416.251 334.813 414.591V413.822C334.813 412.21 334.655 410.697 334.337 409.281C334.044 407.84 333.568 406.571 332.909 405.472C332.274 404.349 331.432 403.47 330.382 402.835C329.333 402.201 328.063 401.883 326.574 401.883C325.084 401.883 323.815 402.201 322.765 402.835C321.74 403.47 320.897 404.349 320.238 405.472C319.604 406.571 319.14 407.84 318.847 409.281C318.554 410.697 318.407 412.21 318.407 413.822ZM375.28 425.357V377.75H385.9V434H376.342L375.28 425.357ZM350.231 414.664V413.895C350.231 410.868 350.573 408.121 351.256 405.655C351.94 403.165 352.941 401.029 354.259 399.247C355.578 397.464 357.201 396.085 359.13 395.108C361.059 394.132 363.256 393.644 365.722 393.644C368.041 393.644 370.067 394.132 371.801 395.108C373.559 396.085 375.048 397.477 376.269 399.283C377.514 401.065 378.515 403.177 379.271 405.619C380.028 408.036 380.578 410.685 380.919 413.565V415.25C380.578 418.009 380.028 420.572 379.271 422.94C378.515 425.309 377.514 427.384 376.269 429.166C375.048 430.924 373.559 432.291 371.801 433.268C370.043 434.244 367.992 434.732 365.648 434.732C363.183 434.732 360.985 434.232 359.057 433.231C357.152 432.23 355.541 430.826 354.223 429.02C352.929 427.213 351.94 425.089 351.256 422.647C350.573 420.206 350.231 417.545 350.231 414.664ZM360.778 413.895V414.664C360.778 416.3 360.9 417.826 361.144 419.242C361.413 420.658 361.84 421.915 362.426 423.014C363.036 424.088 363.817 424.93 364.77 425.541C365.746 426.126 366.93 426.419 368.322 426.419C370.128 426.419 371.618 426.017 372.79 425.211C373.961 424.381 374.853 423.246 375.463 421.805C376.098 420.365 376.464 418.705 376.562 416.825V412.027C376.488 410.489 376.269 409.11 375.902 407.889C375.561 406.644 375.048 405.582 374.364 404.703C373.705 403.824 372.875 403.141 371.874 402.652C370.897 402.164 369.738 401.92 368.395 401.92C367.028 401.92 365.856 402.237 364.879 402.872C363.903 403.482 363.109 404.325 362.499 405.399C361.913 406.473 361.474 407.743 361.181 409.208C360.912 410.648 360.778 412.21 360.778 413.895ZM405.272 377.75V434H394.689V377.75H405.272ZM425.744 429.532L436.254 394.376H447.57L431.64 439.969C431.298 440.97 430.834 442.044 430.248 443.192C429.687 444.339 428.917 445.426 427.941 446.451C426.989 447.501 425.78 448.355 424.315 449.015C422.875 449.674 421.105 450.003 419.005 450.003C418.004 450.003 417.187 449.942 416.552 449.82C415.917 449.698 415.16 449.527 414.281 449.308V441.581C414.55 441.581 414.831 441.581 415.124 441.581C415.417 441.605 415.697 441.617 415.966 441.617C417.357 441.617 418.493 441.458 419.372 441.141C420.25 440.824 420.958 440.335 421.496 439.676C422.033 439.042 422.46 438.211 422.777 437.186L425.744 429.532ZM421.349 394.376L429.955 423.087L431.457 434.256L424.279 435.025L410.033 394.376H421.349ZM279.516 508.047C279.516 507.095 279.369 506.241 279.076 505.484C278.808 504.703 278.295 503.995 277.538 503.36C276.781 502.701 275.719 502.054 274.352 501.419C272.985 500.784 271.215 500.125 269.042 499.441C266.625 498.66 264.33 497.781 262.157 496.805C260.009 495.828 258.104 494.693 256.444 493.399C254.809 492.081 253.515 490.555 252.562 488.821C251.635 487.088 251.171 485.074 251.171 482.779C251.171 480.557 251.659 478.543 252.636 476.736C253.612 474.905 254.979 473.343 256.737 472.049C258.495 470.73 260.57 469.717 262.963 469.009C265.38 468.301 268.029 467.947 270.91 467.947C274.84 467.947 278.271 468.655 281.2 470.071C284.13 471.487 286.4 473.428 288.012 475.894C289.647 478.36 290.465 481.18 290.465 484.354H279.552C279.552 482.791 279.223 481.424 278.563 480.252C277.929 479.056 276.952 478.116 275.634 477.432C274.34 476.749 272.704 476.407 270.727 476.407C268.822 476.407 267.235 476.7 265.966 477.286C264.696 477.847 263.744 478.616 263.109 479.593C262.475 480.545 262.157 481.619 262.157 482.815C262.157 483.719 262.377 484.537 262.816 485.269C263.28 486.001 263.964 486.685 264.867 487.32C265.771 487.955 266.881 488.553 268.2 489.114C269.518 489.676 271.044 490.225 272.777 490.762C275.683 491.641 278.234 492.63 280.431 493.729C282.653 494.827 284.508 496.06 285.998 497.427C287.487 498.794 288.61 500.345 289.367 502.078C290.124 503.812 290.502 505.777 290.502 507.974C290.502 510.293 290.05 512.369 289.147 514.2C288.244 516.031 286.938 517.581 285.229 518.851C283.52 520.12 281.481 521.084 279.113 521.744C276.745 522.403 274.096 522.732 271.166 522.732C268.529 522.732 265.929 522.391 263.366 521.707C260.802 520.999 258.471 519.937 256.371 518.521C254.296 517.105 252.636 515.298 251.391 513.101C250.146 510.904 249.523 508.304 249.523 505.301H260.546C260.546 506.961 260.802 508.365 261.315 509.512C261.828 510.66 262.548 511.587 263.476 512.295C264.428 513.003 265.551 513.516 266.845 513.833C268.163 514.151 269.604 514.31 271.166 514.31C273.07 514.31 274.633 514.041 275.854 513.504C277.099 512.967 278.014 512.222 278.6 511.27C279.21 510.318 279.516 509.244 279.516 508.047ZM315.551 522.732C312.475 522.732 309.716 522.244 307.274 521.268C304.833 520.267 302.758 518.887 301.049 517.129C299.364 515.372 298.07 513.333 297.167 511.014C296.264 508.67 295.812 506.18 295.812 503.543V502.078C295.812 499.075 296.239 496.329 297.094 493.838C297.948 491.348 299.169 489.188 300.756 487.356C302.367 485.525 304.32 484.122 306.615 483.145C308.91 482.144 311.498 481.644 314.379 481.644C317.187 481.644 319.677 482.107 321.85 483.035C324.022 483.963 325.841 485.281 327.306 486.99C328.795 488.699 329.918 490.75 330.675 493.143C331.432 495.511 331.811 498.147 331.811 501.053V505.447H300.316V498.416H321.447V497.61C321.447 496.146 321.178 494.839 320.641 493.692C320.128 492.52 319.347 491.592 318.297 490.909C317.248 490.225 315.905 489.883 314.269 489.883C312.877 489.883 311.681 490.188 310.68 490.799C309.679 491.409 308.861 492.264 308.227 493.362C307.616 494.461 307.152 495.755 306.835 497.244C306.542 498.709 306.396 500.32 306.396 502.078V503.543C306.396 505.13 306.615 506.595 307.055 507.938C307.519 509.28 308.166 510.44 308.996 511.417C309.85 512.393 310.875 513.15 312.072 513.687C313.292 514.224 314.672 514.493 316.21 514.493C318.114 514.493 319.884 514.126 321.52 513.394C323.18 512.637 324.608 511.502 325.805 509.988L330.932 515.555C330.102 516.751 328.966 517.898 327.526 518.997C326.11 520.096 324.401 520.999 322.399 521.707C320.397 522.391 318.114 522.732 315.551 522.732ZM356.054 522.732C352.978 522.732 350.219 522.244 347.777 521.268C345.336 520.267 343.261 518.887 341.552 517.129C339.867 515.372 338.573 513.333 337.67 511.014C336.767 508.67 336.315 506.18 336.315 503.543V502.078C336.315 499.075 336.742 496.329 337.597 493.838C338.451 491.348 339.672 489.188 341.259 487.356C342.87 485.525 344.823 484.122 347.118 483.145C349.413 482.144 352.001 481.644 354.882 481.644C357.689 481.644 360.18 482.107 362.353 483.035C364.525 483.963 366.344 485.281 367.809 486.99C369.298 488.699 370.421 490.75 371.178 493.143C371.935 495.511 372.313 498.147 372.313 501.053V505.447H340.819V498.416H361.95V497.61C361.95 496.146 361.681 494.839 361.144 493.692C360.631 492.52 359.85 491.592 358.8 490.909C357.75 490.225 356.408 489.883 354.772 489.883C353.38 489.883 352.184 490.188 351.183 490.799C350.182 491.409 349.364 492.264 348.729 493.362C348.119 494.461 347.655 495.755 347.338 497.244C347.045 498.709 346.898 500.32 346.898 502.078V503.543C346.898 505.13 347.118 506.595 347.558 507.938C348.021 509.28 348.668 510.44 349.499 511.417C350.353 512.393 351.378 513.15 352.575 513.687C353.795 514.224 355.175 514.493 356.713 514.493C358.617 514.493 360.387 514.126 362.023 513.394C363.683 512.637 365.111 511.502 366.308 509.988L371.435 515.555C370.604 516.751 369.469 517.898 368.029 518.997C366.613 520.096 364.904 520.999 362.902 521.707C360.9 522.391 358.617 522.732 356.054 522.732ZM401.72 513.357V465.75H412.34V522H402.782L401.72 513.357ZM376.671 502.664V501.895C376.671 498.868 377.013 496.121 377.697 493.655C378.38 491.165 379.381 489.029 380.7 487.247C382.018 485.464 383.642 484.085 385.57 483.108C387.499 482.132 389.696 481.644 392.162 481.644C394.481 481.644 396.508 482.132 398.241 483.108C399.999 484.085 401.488 485.477 402.709 487.283C403.954 489.065 404.955 491.177 405.712 493.619C406.469 496.036 407.018 498.685 407.36 501.565V503.25C407.018 506.009 406.469 508.572 405.712 510.94C404.955 513.309 403.954 515.384 402.709 517.166C401.488 518.924 399.999 520.291 398.241 521.268C396.483 522.244 394.433 522.732 392.089 522.732C389.623 522.732 387.426 522.232 385.497 521.231C383.593 520.23 381.981 518.826 380.663 517.02C379.369 515.213 378.38 513.089 377.697 510.647C377.013 508.206 376.671 505.545 376.671 502.664ZM387.218 501.895V502.664C387.218 504.3 387.34 505.826 387.584 507.242C387.853 508.658 388.28 509.915 388.866 511.014C389.477 512.088 390.258 512.93 391.21 513.541C392.187 514.126 393.371 514.419 394.762 514.419C396.569 514.419 398.058 514.017 399.23 513.211C400.402 512.381 401.293 511.246 401.903 509.805C402.538 508.365 402.904 506.705 403.002 504.825V500.027C402.929 498.489 402.709 497.11 402.343 495.889C402.001 494.644 401.488 493.582 400.805 492.703C400.146 491.824 399.315 491.141 398.314 490.652C397.338 490.164 396.178 489.92 394.835 489.92C393.468 489.92 392.296 490.237 391.32 490.872C390.343 491.482 389.55 492.325 388.939 493.399C388.354 494.473 387.914 495.743 387.621 497.208C387.353 498.648 387.218 500.21 387.218 501.895ZM442.003 511.05C442.003 510.293 441.784 509.61 441.344 509C440.905 508.389 440.087 507.828 438.891 507.315C437.719 506.778 436.022 506.29 433.8 505.85C431.798 505.411 429.931 504.861 428.197 504.202C426.488 503.519 424.999 502.701 423.729 501.749C422.484 500.796 421.508 499.673 420.8 498.379C420.092 497.061 419.738 495.56 419.738 493.875C419.738 492.215 420.092 490.652 420.8 489.188C421.532 487.723 422.57 486.429 423.913 485.306C425.28 484.158 426.94 483.267 428.893 482.632C430.871 481.973 433.092 481.644 435.558 481.644C439 481.644 441.955 482.193 444.42 483.292C446.911 484.39 448.815 485.904 450.133 487.833C451.476 489.737 452.147 491.91 452.147 494.351H441.601C441.601 493.326 441.381 492.41 440.941 491.604C440.526 490.774 439.867 490.127 438.964 489.664C438.085 489.175 436.938 488.931 435.521 488.931C434.35 488.931 433.336 489.139 432.482 489.554C431.627 489.944 430.968 490.481 430.504 491.165C430.065 491.824 429.845 492.557 429.845 493.362C429.845 493.973 429.967 494.522 430.211 495.01C430.48 495.474 430.907 495.901 431.493 496.292C432.079 496.683 432.836 497.049 433.764 497.391C434.716 497.708 435.888 498.001 437.279 498.27C440.136 498.855 442.687 499.625 444.933 500.577C447.179 501.504 448.961 502.774 450.28 504.385C451.598 505.972 452.257 508.06 452.257 510.647C452.257 512.405 451.867 514.017 451.085 515.481C450.304 516.946 449.181 518.228 447.716 519.327C446.251 520.401 444.494 521.243 442.443 521.854C440.417 522.439 438.134 522.732 435.595 522.732C431.908 522.732 428.783 522.073 426.22 520.755C423.681 519.437 421.752 517.764 420.434 515.738C419.14 513.687 418.493 511.587 418.493 509.439H428.49C428.539 510.879 428.905 512.039 429.589 512.918C430.297 513.797 431.188 514.432 432.262 514.822C433.361 515.213 434.545 515.408 435.814 515.408C437.182 515.408 438.317 515.225 439.22 514.859C440.124 514.468 440.807 513.956 441.271 513.321C441.759 512.662 442.003 511.905 442.003 511.05Z" fill="white"/>
<defs>
<filter id="filter0_f_340_1691" x="138.5" y="593" width="411" height="66" filterUnits="userSpaceOnUse" color-interpolation-filters="sRGB">
<feFlood flood-opacity="0" result="BackgroundImageFix"/>
<feBlend mode="normal" in="SourceGraphic" in2="BackgroundImageFix" result="shape"/>
<feGaussianBlur stdDeviation="12.5" result="effect1_foregroundBlur_340_1691"/>
</filter>
<linearGradient id="paint0_linear_340_1691" x1="223.305" y1="638.407" x2="497.106" y2="135.072" gradientUnits="userSpaceOnUse">
<stop stop-color="#E84A5A"/>
<stop offset="1" stop-color="#F2B1B5"/>
</linearGradient>
<linearGradient id="paint1_linear_340_1691" x1="109" y1="382" x2="579" y2="382" gradientUnits="userSpaceOnUse">
<stop stop-color="#D0212C"/>
<stop offset="1" stop-color="#E84A5A"/>
</linearGradient>
</defs>
</svg>
