<svg width="865" height="139" viewBox="0 0 865 139" fill="none" xmlns="http://www.w3.org/2000/svg">
<path fill-rule="evenodd" clip-rule="evenodd" d="M1.28688 -106.137C9.76499 -145.537 104.941 -160.422 172.007 -183.086C238.647 -205.606 286.674 -246.07 390.487 -237.659C494.901 -229.198 562.485 -173.783 657.056 -143.783C739.928 -117.495 840.637 -106.29 908.314 -73.3946C988.648 -34.347 1090.03 16.673 1065.21 54.6045C1039.6 93.7452 884.913 78.5809 798.005 95.1993C734.447 107.353 703.898 137.949 626.068 138.576C545.261 139.228 458.336 118.347 375.895 98.6013C285.185 76.8746 192.481 54.3866 128.439 19.3852C56.5332 -19.9143 -7.24445 -66.4895 1.28688 -106.137Z" fill="url(#paint0_linear_104_1707)"/>
<defs>
<linearGradient id="paint0_linear_104_1707" x1="511.069" y1="128.094" x2="562.521" y2="-212.461" gradientUnits="userSpaceOnUse">
<stop stop-color="#D0212C"/>
<stop offset="1" stop-color="#FC6767"/>
</linearGradient>
</defs>
</svg>
